<svg xmlns="http://www.w3.org/2000/svg" width="420.943" height="348.127" viewBox="0 0 420.943 348.127">
  <g id="_0khxryuf9k3am6joc6h1" data-name="0khxryuf9k3am6joc6h1" transform="translate(-54.099 -181.142)">
    <g id="Raggruppa_33" data-name="Raggruppa 33">
      <g id="Raggruppa_32" data-name="Raggruppa 32">
        <g id="Raggruppa_3" data-name="Raggruppa 3">
          <path id="Tracciato_1" data-name="Tracciato 1" d="M108.43,507.52,108,217.2" fill="none" stroke="#000" stroke-width="1"/>
          <g id="Raggruppa_2" data-name="Raggruppa 2" transform="translate(108 215.204) rotate(89.92)">
            <path id="Tracciato_2" data-name="Tracciato 2" d="M10.93-3.29A32.694,32.694,0,0,1,0,0,32.694,32.694,0,0,1,10.93,3.29" fill="none" stroke="#000" stroke-width="1"/>
          </g>
        </g>
        <g id="Raggruppa_5" data-name="Raggruppa 5">
          <path id="Tracciato_3" data-name="Tracciato 3" d="M108.43,507.52l282.35-.87" fill="none" stroke="#000" stroke-width="1"/>
          <g id="Raggruppa_4" data-name="Raggruppa 4" transform="matrix(-1, 0.003, -0.003, -1, 392.784, 506.64)">
            <path id="Tracciato_4" data-name="Tracciato 4" d="M10.93-3.29A32.694,32.694,0,0,1,0,0,32.694,32.694,0,0,1,10.93,3.29" fill="none" stroke="#000" stroke-width="1"/>
          </g>
        </g>
        <g id="Raggruppa_6" data-name="Raggruppa 6">
          <path id="Tracciato_5" data-name="Tracciato 5" d="M364.01,375.79,219.03,416.46,179.3,267.97" fill="none" stroke="#000" stroke-width="1"/>
        </g>
        <g id="Raggruppa_7" data-name="Raggruppa 7">
          <path id="Tracciato_6" data-name="Tracciato 6" d="M396.57,208.46,282.74,309.06l-98.2-116.59" fill="none" stroke="#000" stroke-width="1"/>
        </g>
        <g id="Raggruppa_8" data-name="Raggruppa 8">
          <path id="Tracciato_7" data-name="Tracciato 7" d="M175.44,287.57l3.86-19.6" fill="none" stroke="#000" stroke-width="1"/>
        </g>
        <g id="Raggruppa_9" data-name="Raggruppa 9">
          <path id="Tracciato_8" data-name="Tracciato 8" d="M193.5,283.13l-14.2-15.16" fill="none" stroke="#000" stroke-width="1"/>
        </g>
        <g id="Raggruppa_10" data-name="Raggruppa 10">
          <path id="Tracciato_9" data-name="Tracciato 9" d="M188.39,211.28l-3.85-18.81" fill="none" stroke="#000" stroke-width="1"/>
        </g>
        <g id="Raggruppa_11" data-name="Raggruppa 11">
          <path id="Tracciato_10" data-name="Tracciato 10" d="M201.91,199.3l-17.37-6.83" fill="none" stroke="#000" stroke-width="1"/>
        </g>
        <g id="Raggruppa_12" data-name="Raggruppa 12">
          <path id="Tracciato_11" data-name="Tracciato 11" d="M390.27,228.24l6.3-19.78" fill="none" stroke="#000" stroke-width="1"/>
        </g>
        <g id="Raggruppa_13" data-name="Raggruppa 13">
          <path id="Tracciato_12" data-name="Tracciato 12" d="M396.57,208.46l-17.96,5.02" fill="none" stroke="#000" stroke-width="1"/>
        </g>
        <g id="Raggruppa_14" data-name="Raggruppa 14">
          <path id="Tracciato_13" data-name="Tracciato 13" d="M364.01,375.79l-17.92-1.75" fill="none" stroke="#000" stroke-width="1"/>
        </g>
        <g id="Raggruppa_15" data-name="Raggruppa 15">
          <path id="Tracciato_14" data-name="Tracciato 14" d="M364.01,375.79l-11.48,11.45" fill="none" stroke="#000" stroke-width="1"/>
        </g>
        <g id="Raggruppa_16" data-name="Raggruppa 16">
          <path id="Tracciato_15" data-name="Tracciato 15" d="M219.02,416.47l150.08.01" fill="none" stroke="#000" stroke-width="1" stroke-dasharray="6 6"/>
        </g>
        <g id="Raggruppa_17" data-name="Raggruppa 17">
          <path id="Tracciato_16" data-name="Tracciato 16" d="M282.75,309.04l150.08.01" fill="none" stroke="#000" stroke-width="1" stroke-dasharray="6 6"/>
        </g>
        <g id="Raggruppa_18" data-name="Raggruppa 18">
          <path id="Tracciato_17" data-name="Tracciato 17" d="M282.75,309.04l145-40.68" fill="none" stroke="#000" stroke-width="1" stroke-dasharray="1.125 3.35"/>
        </g>
        <g id="Raggruppa_19" data-name="Raggruppa 19">
          <path id="Tracciato_18" data-name="Tracciato 18" d="M423.67,269.62l-11.48,11.45" fill="none" stroke="#000" stroke-width="1"/>
        </g>
        <g id="Raggruppa_20" data-name="Raggruppa 20">
          <path id="Tracciato_19" data-name="Tracciato 19" d="M423.67,269.62l-17.92-1.75" fill="none" stroke="#000" stroke-width="1"/>
        </g>
        <g id="Raggruppa_21" data-name="Raggruppa 21">
          <path id="Tracciato_20" data-name="Tracciato 20" d="M299.13,393.33a67.258,67.258,0,0,1,3.46,21.02q0,1.125-.03,2.25l-64.41-1.9Z" fill="none"/>
          <path id="Tracciato_21" data-name="Tracciato 21" d="M299.13,393.33a67.258,67.258,0,0,1,3.46,21.02q0,1.125-.03,2.25" fill="none" stroke="#4a90e2" stroke-width="1"/>
        </g>
        <g id="Raggruppa_22" data-name="Raggruppa 22">
          <path id="Tracciato_22" data-name="Tracciato 22" d="M331.87,294.36a67.915,67.915,0,0,1,1.65,14.51l-64.44.35Z" fill="none"/>
          <path id="Tracciato_23" data-name="Tracciato 23" d="M331.87,294.36a67.915,67.915,0,0,1,1.65,14.51" fill="none" stroke="#4a90e2" stroke-width="1"/>
        </g>
        <g id="Raggruppa_23" data-name="Raggruppa 23">
          <path id="Tracciato_24" data-name="Tracciato 24" d="M340.85,259.15a66.159,66.159,0,0,1,17.91,28.45l-61.33,20.3Z" fill="none"/>
          <path id="Tracciato_25" data-name="Tracciato 25" d="M340.85,259.15a66.159,66.159,0,0,1,17.91,28.45" fill="none" stroke="#4a90e2" stroke-width="1"/>
        </g>
        <g id="Raggruppa_25" data-name="Raggruppa 25">
          <path id="Tracciato_26" data-name="Tracciato 26" d="M108.43,507.52l109.05-89.79" fill="none" stroke="#d0021b" stroke-width="1"/>
          <g id="Raggruppa_24" data-name="Raggruppa 24" transform="translate(219.027 416.46) rotate(140.53)">
            <path id="Tracciato_27" data-name="Tracciato 27" d="M10.93-3.29A32.694,32.694,0,0,1,0,0,32.694,32.694,0,0,1,10.93,3.29" fill="none" stroke="#d0021b" stroke-width="1"/>
          </g>
        </g>
        <g id="Raggruppa_27" data-name="Raggruppa 27">
          <path id="Tracciato_28" data-name="Tracciato 28" d="M219.03,416.46l62.7-105.7" fill="none" stroke="#d0021b" stroke-width="1"/>
          <g id="Raggruppa_26" data-name="Raggruppa 26" transform="translate(282.75 309.044) rotate(120.68)">
            <path id="Tracciato_29" data-name="Tracciato 29" d="M10.93-3.29A32.694,32.694,0,0,1,0,0,32.694,32.694,0,0,1,10.93,3.29" fill="none" stroke="#d0021b" stroke-width="1"/>
          </g>
        </g>
        <g id="Raggruppa_29" data-name="Raggruppa 29">
          <path id="Tracciato_30" data-name="Tracciato 30" d="M108.1,506.52l41.52-34" fill="none" stroke="#7ed321" stroke-width="1"/>
          <g id="Raggruppa_28" data-name="Raggruppa 28" transform="matrix(-0.774, 0.634, -0.634, -0.774, 151.167, 471.25)">
            <path id="Tracciato_31" data-name="Tracciato 31" d="M10.93-3.29A32.694,32.694,0,0,1,0,0,32.694,32.694,0,0,1,10.93,3.29" fill="none" stroke="#7ed321" stroke-width="1"/>
          </g>
        </g>
        <g id="Raggruppa_31" data-name="Raggruppa 31">
          <path id="Tracciato_32" data-name="Tracciato 32" d="M108.1,506.52l23.91-42.08" fill="none" stroke="#7ed321" stroke-width="1"/>
          <g id="Raggruppa_30" data-name="Raggruppa 30" transform="matrix(-0.494, 0.869, -0.869, -0.494, 133, 462.7)">
            <path id="Tracciato_33" data-name="Tracciato 33" d="M10.93-3.29A32.694,32.694,0,0,1,0,0,32.694,32.694,0,0,1,10.93,3.29" fill="none" stroke="#7ed321" stroke-width="1"/>
          </g>
        </g>
      </g>
    </g>
    <g id="Raggruppa_203" data-name="Raggruppa 203">
      <g id="Raggruppa_42" data-name="Raggruppa 42">
        <g id="Raggruppa_41" data-name="Raggruppa 41">
          <g id="Raggruppa_35" data-name="Raggruppa 35">
            <g id="Raggruppa_34" data-name="Raggruppa 34" transform="translate(396.891 515.836)">
              <path id="Tracciato_34" data-name="Tracciato 34" d="M.153-.017a1.648,1.648,0,0,0,.731.2A2.454,2.454,0,0,0,2.635-1.105L3.927-3.094l.187,1.173C4.335-.476,4.726.187,5.338.187A2.578,2.578,0,0,0,6.8-.6l.833-.748L7.48-1.666A2.7,2.7,0,0,1,6.171-.9c-.255,0-.476-.17-.646-.51A6.667,6.667,0,0,1,5.1-2.856L4.794-4.573l.6-.833c.8-1.105,1.258-1.5,1.785-1.5a.552.552,0,0,1,.561.391l.238-.068.255-1.445a1,1,0,0,0-.51-.17c-.68,0-1.36.612-2.414,2.176l-.629.935-.1-.816c-.2-1.683-.663-2.3-1.666-2.3a1.194,1.194,0,0,0-.969.357L.952-6.426l.289.17c.51-.578.85-.816,1.173-.816.561,0,.935.7,1.224,2.363l.187,1.054L3.145-2.6C2.414-1.462,1.836-.918,1.36-.918c-.255,0-.442-.068-.476-.153L.7-1.547.357-1.5A8.392,8.392,0,0,1,.153-.017Z" stroke="#000" stroke-width="0.136"/>
            </g>
          </g>
          <g id="Raggruppa_40" data-name="Raggruppa 40">
            <g id="Raggruppa_39" data-name="Raggruppa 39">
              <g id="Raggruppa_38" data-name="Raggruppa 38">
                <g id="Raggruppa_37" data-name="Raggruppa 37">
                  <g id="Raggruppa_36" data-name="Raggruppa 36" transform="translate(405.883 519.338)">
                    <path id="Tracciato_35" data-name="Tracciato 35" d="M3.13-8.2C1.285-8.2.345-6.735.345-3.856A6.073,6.073,0,0,0,1.012-.678,2.206,2.206,0,0,0,2.832.238c1.8,0,2.7-1.547,2.7-4.593C5.534-6.962,4.76-8.2,3.13-8.2Zm-.214.417c1.154,0,1.618,1.166,1.618,4.022,0,2.535-.452,3.582-1.547,3.582-1.154,0-1.642-1.2-1.642-4.105C1.345-6.795,1.785-7.783,2.916-7.783Z" stroke="#000" stroke-width="0.095"/>
                  </g>
                </g>
              </g>
            </g>
          </g>
        </g>
      </g>
      <g id="Raggruppa_51" data-name="Raggruppa 51" transform="translate(-114.655 175.036) rotate(-23.04)">
        <g id="Raggruppa_50" data-name="Raggruppa 50">
          <g id="Raggruppa_44" data-name="Raggruppa 44">
            <g id="Raggruppa_43" data-name="Raggruppa 43" transform="translate(366.484 372.357)">
              <path id="Tracciato_36" data-name="Tracciato 36" d="M.107-.012A1.153,1.153,0,0,0,.619.131a1.718,1.718,0,0,0,1.226-.9l.9-1.392.131.821C3.035-.333,3.308.131,3.737.131A1.8,1.8,0,0,0,4.76-.417L5.343-.94l-.107-.226a1.888,1.888,0,0,1-.916.536c-.179,0-.333-.119-.452-.357A4.667,4.667,0,0,1,3.57-2L3.356-3.2l.416-.583c.559-.773.881-1.047,1.25-1.047a.387.387,0,0,1,.393.274l.167-.048L5.76-5.617A.7.7,0,0,0,5.4-5.736c-.476,0-.952.428-1.69,1.523l-.44.655L3.2-4.129c-.143-1.178-.464-1.607-1.166-1.607a.835.835,0,0,0-.678.25L.666-4.5l.2.119c.357-.4.6-.571.821-.571.393,0,.655.488.857,1.654l.131.738L2.2-1.821C1.69-1.023,1.285-.643.952-.643.774-.643.643-.69.619-.75L.488-1.083.25-1.047A5.874,5.874,0,0,1,.107-.012Z" stroke="#000" stroke-width="0.095"/>
            </g>
          </g>
          <g id="Raggruppa_49" data-name="Raggruppa 49">
            <g id="Raggruppa_48" data-name="Raggruppa 48">
              <g id="Raggruppa_47" data-name="Raggruppa 47">
                <g id="Raggruppa_46" data-name="Raggruppa 46">
                  <g id="Raggruppa_45" data-name="Raggruppa 45" transform="translate(372.781 374.959)">
                    <path id="Tracciato_37" data-name="Tracciato 37" d="M3.482.025v-.25L3.049-.25c-.458-.025-.541-.117-.541-.55V-5.831L.5-4.981l.058.417,1.249-.55V-.8c0,.433-.092.525-.541.55L.8-.225v.25C2.082,0,2.082,0,2.174,0,2.432,0,3.349.025,3.482.025Z" stroke="#000" stroke-width="0.067"/>
                  </g>
                </g>
              </g>
            </g>
          </g>
        </g>
      </g>
      <g id="Raggruppa_60" data-name="Raggruppa 60" transform="translate(-32.073 312.227) rotate(-40.82)">
        <g id="Raggruppa_59" data-name="Raggruppa 59">
          <g id="Raggruppa_53" data-name="Raggruppa 53">
            <g id="Raggruppa_52" data-name="Raggruppa 52" transform="translate(397.93 202.779)">
              <path id="Tracciato_38" data-name="Tracciato 38" d="M.107-.012A1.153,1.153,0,0,0,.619.131a1.718,1.718,0,0,0,1.226-.9l.9-1.392.131.821C3.035-.333,3.308.131,3.737.131A1.8,1.8,0,0,0,4.76-.417L5.343-.94l-.107-.226a1.888,1.888,0,0,1-.916.536c-.179,0-.333-.119-.452-.357A4.667,4.667,0,0,1,3.57-2L3.356-3.2l.416-.583c.559-.773.881-1.047,1.25-1.047a.387.387,0,0,1,.393.274l.167-.048L5.76-5.617A.7.7,0,0,0,5.4-5.736c-.476,0-.952.428-1.69,1.523l-.44.655L3.2-4.129c-.143-1.178-.464-1.607-1.166-1.607a.835.835,0,0,0-.678.25L.666-4.5l.2.119c.357-.4.6-.571.821-.571.393,0,.655.488.857,1.654l.131.738L2.2-1.821C1.69-1.023,1.285-.643.952-.643.774-.643.643-.69.619-.75L.488-1.083.25-1.047A5.874,5.874,0,0,1,.107-.012Z" stroke="#000" stroke-width="0.095"/>
            </g>
          </g>
          <g id="Raggruppa_58" data-name="Raggruppa 58">
            <g id="Raggruppa_57" data-name="Raggruppa 57">
              <g id="Raggruppa_56" data-name="Raggruppa 56">
                <g id="Raggruppa_55" data-name="Raggruppa 55">
                  <g id="Raggruppa_54" data-name="Raggruppa 54" transform="translate(404.227 205.381)">
                    <path id="Tracciato_39" data-name="Tracciato 39" d="M.133-.192V.025C1.691.025,1.691,0,1.991,0s.3.025,1.908.025V-.683c-.958.042-1.341.008-2.882.042L2.532-2.249C3.34-3.107,3.59-3.565,3.59-4.19A1.512,1.512,0,0,0,1.883-5.739a1.792,1.792,0,0,0-1.416.583L.325-4.023H.566l.108-.383A.88.88,0,0,1,1.666-5.1,1.089,1.089,0,0,1,2.841-3.94c0,.625-.35,1.241-1.291,2.241Z" stroke="#000" stroke-width="0.067"/>
                  </g>
                </g>
              </g>
            </g>
          </g>
        </g>
      </g>
      <g id="Raggruppa_69" data-name="Raggruppa 69" transform="translate(-68.437 190.208) rotate(-23.04)">
        <g id="Raggruppa_68" data-name="Raggruppa 68">
          <g id="Raggruppa_62" data-name="Raggruppa 62">
            <g id="Raggruppa_61" data-name="Raggruppa 61" transform="translate(426.813 266.56)">
              <path id="Tracciato_40" data-name="Tracciato 40" d="M.107-.012A1.153,1.153,0,0,0,.619.131a1.718,1.718,0,0,0,1.226-.9l.9-1.392.131.821C3.035-.333,3.308.131,3.737.131A1.8,1.8,0,0,0,4.76-.417L5.343-.94l-.107-.226a1.888,1.888,0,0,1-.916.536c-.179,0-.333-.119-.452-.357A4.667,4.667,0,0,1,3.57-2L3.356-3.2l.416-.583c.559-.773.881-1.047,1.25-1.047a.387.387,0,0,1,.393.274l.167-.048L5.76-5.617A.7.7,0,0,0,5.4-5.736c-.476,0-.952.428-1.69,1.523l-.44.655L3.2-4.129c-.143-1.178-.464-1.607-1.166-1.607a.835.835,0,0,0-.678.25L.666-4.5l.2.119c.357-.4.6-.571.821-.571.393,0,.655.488.857,1.654l.131.738L2.2-1.821C1.69-1.023,1.285-.643.952-.643.774-.643.643-.69.619-.75L.488-1.083.25-1.047A5.874,5.874,0,0,1,.107-.012Z" stroke="#000" stroke-width="0.095"/>
            </g>
          </g>
          <g id="Raggruppa_67" data-name="Raggruppa 67">
            <g id="Raggruppa_66" data-name="Raggruppa 66">
              <g id="Raggruppa_65" data-name="Raggruppa 65">
                <g id="Raggruppa_64" data-name="Raggruppa 64">
                  <g id="Raggruppa_63" data-name="Raggruppa 63" transform="translate(433.109 269.162)">
                    <path id="Tracciato_41" data-name="Tracciato 41" d="M3.482.025v-.25L3.049-.25c-.458-.025-.541-.117-.541-.55V-5.831L.5-4.981l.058.417,1.249-.55V-.8c0,.433-.092.525-.541.55L.8-.225v.25C2.082,0,2.082,0,2.174,0,2.432,0,3.349.025,3.482.025Z" stroke="#000" stroke-width="0.067"/>
                  </g>
                </g>
              </g>
            </g>
          </g>
        </g>
      </g>
      <g id="Raggruppa_78" data-name="Raggruppa 78" transform="translate(-76.694 161.637) rotate(-40.82)">
        <g id="Raggruppa_77" data-name="Raggruppa 77">
          <g id="Raggruppa_71" data-name="Raggruppa 71">
            <g id="Raggruppa_70" data-name="Raggruppa 70" transform="translate(173.266 187.443)">
              <path id="Tracciato_42" data-name="Tracciato 42" d="M-.083,2.142A1.444,1.444,0,0,0-.1,2.356a.956.956,0,0,0,.976.928c1.261,0,2.57-1.476,3.272-3.677L5.831-5.629,5.7-5.736a3.309,3.309,0,0,1-.881.226L4.4-3.939a7.677,7.677,0,0,1-.952,2.011C3.035-1.321,2.451-.8,2.19-.8c-.143,0-.25-.274-.238-.571l.19-2.463c.024-.369.048-.821.048-1.154,0-.536-.083-.75-.286-.75-.155,0-.321.083-.893.476l-.976.666.131.214.6-.357a.7.7,0,0,1,.3-.143c.167,0,.262.226.262.619a1.478,1.478,0,0,1-.012.178l-.2,2.892-.012.476c0,.5.214.845.512.845.44,0,1.44-1.012,2.332-2.356L3.356-.19c-.607,2.106-1.2,2.975-2.035,2.975a.727.727,0,0,1-.738-.738c0-.06.012-.155.024-.262L.488,1.737Z" stroke="#000" stroke-width="0.095"/>
            </g>
          </g>
          <g id="Raggruppa_76" data-name="Raggruppa 76">
            <g id="Raggruppa_75" data-name="Raggruppa 75">
              <g id="Raggruppa_74" data-name="Raggruppa 74">
                <g id="Raggruppa_73" data-name="Raggruppa 73">
                  <g id="Raggruppa_72" data-name="Raggruppa 72" transform="translate(179.563 190.045)">
                    <path id="Tracciato_43" data-name="Tracciato 43" d="M.133-.192V.025C1.691.025,1.691,0,1.991,0s.3.025,1.908.025V-.683c-.958.042-1.341.008-2.882.042L2.532-2.249C3.34-3.107,3.59-3.565,3.59-4.19A1.512,1.512,0,0,0,1.883-5.739a1.792,1.792,0,0,0-1.416.583L.325-4.023H.566l.108-.383A.88.88,0,0,1,1.666-5.1,1.089,1.089,0,0,1,2.841-3.94c0,.625-.35,1.241-1.291,2.241Z" stroke="#000" stroke-width="0.067"/>
                  </g>
                </g>
              </g>
            </g>
          </g>
        </g>
      </g>
      <g id="Raggruppa_87" data-name="Raggruppa 87" transform="translate(-86.033 90.122) rotate(-23.04)">
        <g id="Raggruppa_86" data-name="Raggruppa 86">
          <g id="Raggruppa_80" data-name="Raggruppa 80">
            <g id="Raggruppa_79" data-name="Raggruppa 79" transform="translate(172.484 259.685)">
              <path id="Tracciato_44" data-name="Tracciato 44" d="M-.083,2.142A1.444,1.444,0,0,0-.1,2.356a.956.956,0,0,0,.976.928c1.261,0,2.57-1.476,3.272-3.677L5.831-5.629,5.7-5.736a3.309,3.309,0,0,1-.881.226L4.4-3.939a7.677,7.677,0,0,1-.952,2.011C3.035-1.321,2.451-.8,2.19-.8c-.143,0-.25-.274-.238-.571l.19-2.463c.024-.369.048-.821.048-1.154,0-.536-.083-.75-.286-.75-.155,0-.321.083-.893.476l-.976.666.131.214.6-.357a.7.7,0,0,1,.3-.143c.167,0,.262.226.262.619a1.478,1.478,0,0,1-.012.178l-.2,2.892-.012.476c0,.5.214.845.512.845.44,0,1.44-1.012,2.332-2.356L3.356-.19c-.607,2.106-1.2,2.975-2.035,2.975a.727.727,0,0,1-.738-.738c0-.06.012-.155.024-.262L.488,1.737Z" stroke="#000" stroke-width="0.095"/>
            </g>
          </g>
          <g id="Raggruppa_85" data-name="Raggruppa 85">
            <g id="Raggruppa_84" data-name="Raggruppa 84">
              <g id="Raggruppa_83" data-name="Raggruppa 83">
                <g id="Raggruppa_82" data-name="Raggruppa 82">
                  <g id="Raggruppa_81" data-name="Raggruppa 81" transform="translate(178.781 262.287)">
                    <path id="Tracciato_45" data-name="Tracciato 45" d="M3.482.025v-.25L3.049-.25c-.458-.025-.541-.117-.541-.55V-5.831L.5-4.981l.058.417,1.249-.55V-.8c0,.433-.092.525-.541.55L.8-.225v.25C2.082,0,2.082,0,2.174,0,2.432,0,3.349.025,3.482.025Z" stroke="#000" stroke-width="0.067"/>
                  </g>
                </g>
              </g>
            </g>
          </g>
        </g>
      </g>
      <g id="Raggruppa_96" data-name="Raggruppa 96">
        <g id="Raggruppa_95" data-name="Raggruppa 95">
          <g id="Raggruppa_89" data-name="Raggruppa 89">
            <g id="Raggruppa_88" data-name="Raggruppa 88" transform="translate(100.891 209.328)">
              <path id="Tracciato_46" data-name="Tracciato 46" d="M-.119,3.06a2.063,2.063,0,0,0-.017.306A1.365,1.365,0,0,0,1.258,4.692c1.8,0,3.672-2.108,4.675-5.253l2.4-7.48-.187-.153a4.727,4.727,0,0,1-1.258.323L6.29-5.627A10.968,10.968,0,0,1,4.93-2.754c-.6.867-1.428,1.615-1.8,1.615-.2,0-.357-.391-.34-.816L3.06-5.474c.034-.527.068-1.173.068-1.649,0-.765-.119-1.071-.408-1.071-.221,0-.459.119-1.275.68L.051-6.562l.187.306.85-.51a.993.993,0,0,1,.425-.2c.238,0,.374.323.374.884a2.111,2.111,0,0,1-.017.255L1.581-1.7l-.017.68c0,.714.306,1.207.731,1.207.629,0,2.057-1.445,3.332-3.366L4.794-.272c-.867,3.009-1.717,4.25-2.907,4.25A1.038,1.038,0,0,1,.833,2.924c0-.085.017-.221.034-.374L.7,2.482Z" stroke="#000" stroke-width="0.136"/>
            </g>
          </g>
          <g id="Raggruppa_94" data-name="Raggruppa 94">
            <g id="Raggruppa_93" data-name="Raggruppa 93">
              <g id="Raggruppa_92" data-name="Raggruppa 92">
                <g id="Raggruppa_91" data-name="Raggruppa 91">
                  <g id="Raggruppa_90" data-name="Raggruppa 90" transform="translate(109.883 212.83)">
                    <path id="Tracciato_47" data-name="Tracciato 47" d="M3.13-8.2C1.285-8.2.345-6.735.345-3.856A6.073,6.073,0,0,0,1.012-.678,2.206,2.206,0,0,0,2.832.238c1.8,0,2.7-1.547,2.7-4.593C5.534-6.962,4.76-8.2,3.13-8.2Zm-.214.417c1.154,0,1.618,1.166,1.618,4.022,0,2.535-.452,3.582-1.547,3.582-1.154,0-1.642-1.2-1.642-4.105C1.345-6.795,1.785-7.783,2.916-7.783Z" stroke="#000" stroke-width="0.095"/>
                  </g>
                </g>
              </g>
            </g>
          </g>
        </g>
      </g>
      <g id="Raggruppa_111" data-name="Raggruppa 111">
        <g id="Raggruppa_110" data-name="Raggruppa 110">
          <g id="Raggruppa_98" data-name="Raggruppa 98">
            <g id="Raggruppa_97" data-name="Raggruppa 97" transform="translate(419.164 508.328)">
              <path id="Tracciato_48" data-name="Tracciato 48" d="M4.029.272c4.012,0,5.7-5.644,5.763-8.84.034-1.938-.51-3.366-2.669-3.366-4.42,0-5.9,4.93-5.95,8.551C1.139-1.36,1.717.272,4.029.272ZM6.817-11.492c2.3,0,1.785,3.145,1.428,5.015H2.873C3.3-8.245,4.624-11.492,6.817-11.492ZM4.3-.221c-2.567,0-1.8-4.216-1.53-5.712H8.143C7.718-4.029,6.732-.221,4.3-.221Z" fill="#4a90e2" stroke="#4a90e2" stroke-width="0.136"/>
            </g>
          </g>
          <g id="Raggruppa_103" data-name="Raggruppa 103">
            <g id="Raggruppa_102" data-name="Raggruppa 102">
              <g id="Raggruppa_101" data-name="Raggruppa 101">
                <g id="Raggruppa_100" data-name="Raggruppa 100">
                  <g id="Raggruppa_99" data-name="Raggruppa 99" transform="translate(430.094 511.83)">
                    <path id="Tracciato_49" data-name="Tracciato 49" d="M3.13-8.2C1.285-8.2.345-6.735.345-3.856A6.073,6.073,0,0,0,1.012-.678,2.206,2.206,0,0,0,2.832.238c1.8,0,2.7-1.547,2.7-4.593C5.534-6.962,4.76-8.2,3.13-8.2Zm-.214.417c1.154,0,1.618,1.166,1.618,4.022,0,2.535-.452,3.582-1.547,3.582-1.154,0-1.642-1.2-1.642-4.105C1.345-6.795,1.785-7.783,2.916-7.783Z" fill="#4a90e2" stroke="#4a90e2" stroke-width="0.095"/>
                  </g>
                </g>
              </g>
            </g>
          </g>
          <g id="Raggruppa_105" data-name="Raggruppa 105">
            <g id="Raggruppa_104" data-name="Raggruppa 104" transform="translate(437.055 508.328)">
              <path id="Tracciato_50" data-name="Tracciato 50" fill="#4a90e2" stroke="#4a90e2" stroke-width="0.136"/>
            </g>
          </g>
          <g id="Raggruppa_107" data-name="Raggruppa 107">
            <g id="Raggruppa_106" data-name="Raggruppa 106" transform="translate(446.383 508.328)">
              <path id="Tracciato_51" data-name="Tracciato 51" d="M10.268-5.9v-1H1.105v1Zm0,3.621v-1H1.105v1Z" fill="#4a90e2" stroke="#4a90e2" stroke-width="0.136"/>
            </g>
          </g>
          <g id="Raggruppa_109" data-name="Raggruppa 109">
            <g id="Raggruppa_108" data-name="Raggruppa 108" transform="translate(462.836 508.328)">
              <path id="Tracciato_52" data-name="Tracciato 52" d="M8.7-11.713c-2.635,0-3.978,2.091-3.978,6.2A8.676,8.676,0,0,0,5.678-.969,3.152,3.152,0,0,0,8.279.34c2.567,0,3.859-2.21,3.859-6.562C12.138-9.945,11.033-11.713,8.7-11.713Zm-.306.595c1.649,0,2.312,1.666,2.312,5.746,0,3.621-.646,5.117-2.21,5.117-1.649,0-2.346-1.717-2.346-5.865C6.154-9.707,6.783-11.118,8.4-11.118Z" fill="#4a90e2" stroke="#4a90e2" stroke-width="0.136"/>
            </g>
          </g>
        </g>
      </g>
      <g id="Raggruppa_120" data-name="Raggruppa 120">
        <g id="Raggruppa_119" data-name="Raggruppa 119">
          <g id="Raggruppa_113" data-name="Raggruppa 113">
            <g id="Raggruppa_112" data-name="Raggruppa 112" transform="translate(313.664 408.078)">
              <path id="Tracciato_53" data-name="Tracciato 53" d="M4.029.272c4.012,0,5.7-5.644,5.763-8.84.034-1.938-.51-3.366-2.669-3.366-4.42,0-5.9,4.93-5.95,8.551C1.139-1.36,1.717.272,4.029.272ZM6.817-11.492c2.3,0,1.785,3.145,1.428,5.015H2.873C3.3-8.245,4.624-11.492,6.817-11.492ZM4.3-.221c-2.567,0-1.8-4.216-1.53-5.712H8.143C7.718-4.029,6.732-.221,4.3-.221Z" fill="#4a90e2" stroke="#4a90e2" stroke-width="0.136"/>
            </g>
          </g>
          <g id="Raggruppa_118" data-name="Raggruppa 118">
            <g id="Raggruppa_117" data-name="Raggruppa 117">
              <g id="Raggruppa_116" data-name="Raggruppa 116">
                <g id="Raggruppa_115" data-name="Raggruppa 115">
                  <g id="Raggruppa_114" data-name="Raggruppa 114" transform="translate(324.594 411.58)">
                    <path id="Tracciato_54" data-name="Tracciato 54" d="M4.974.036V-.321L4.355-.357c-.655-.036-.773-.167-.773-.785V-8.33L.714-7.116.8-6.521l1.785-.785v6.164c0,.619-.131.75-.773.785l-.666.036V.036C2.975,0,2.975,0,3.106,0,3.475,0,4.784.036,4.974.036Z" fill="#4a90e2" stroke="#4a90e2" stroke-width="0.095"/>
                  </g>
                </g>
              </g>
            </g>
          </g>
        </g>
      </g>
      <g id="Raggruppa_129" data-name="Raggruppa 129">
        <g id="Raggruppa_128" data-name="Raggruppa 128">
          <g id="Raggruppa_122" data-name="Raggruppa 122">
            <g id="Raggruppa_121" data-name="Raggruppa 121" transform="translate(337.164 305.6)">
              <path id="Tracciato_55" data-name="Tracciato 55" d="M3.223.218c3.21,0,4.556-4.515,4.61-7.072C7.861-8.4,7.426-9.547,5.7-9.547,2.162-9.547.979-5.6.938-2.706.911-1.088,1.374.218,3.223.218Zm2.23-9.411c1.836,0,1.428,2.516,1.142,4.012H2.3C2.638-6.6,3.7-9.194,5.454-9.194ZM3.441-.177C1.387-.177,2-3.55,2.217-4.746h4.3C6.174-3.223,5.386-.177,3.441-.177Z" fill="#4a90e2" stroke="#4a90e2" stroke-width="0.109"/>
            </g>
          </g>
          <g id="Raggruppa_127" data-name="Raggruppa 127">
            <g id="Raggruppa_126" data-name="Raggruppa 126">
              <g id="Raggruppa_125" data-name="Raggruppa 125">
                <g id="Raggruppa_124" data-name="Raggruppa 124">
                  <g id="Raggruppa_123" data-name="Raggruppa 123" transform="translate(345.914 307.997)">
                    <path id="Tracciato_56" data-name="Tracciato 56" d="M3.979.029V-.257l-.5-.029c-.524-.029-.619-.133-.619-.628v-5.75L.571-5.693l.067.476,1.428-.628V-.914c0,.5-.1.6-.619.628L.914-.257V.029C2.38,0,2.38,0,2.485,0,2.78,0,3.827.029,3.979.029Z" fill="#4a90e2" stroke="#4a90e2" stroke-width="0.076"/>
                  </g>
                </g>
              </g>
            </g>
          </g>
        </g>
      </g>
      <g id="Raggruppa_138" data-name="Raggruppa 138">
        <g id="Raggruppa_137" data-name="Raggruppa 137">
          <g id="Raggruppa_131" data-name="Raggruppa 131">
            <g id="Raggruppa_130" data-name="Raggruppa 130" transform="translate(354.914 271.5)">
              <path id="Tracciato_57" data-name="Tracciato 57" d="M4.029.272c4.012,0,5.7-5.644,5.763-8.84.034-1.938-.51-3.366-2.669-3.366-4.42,0-5.9,4.93-5.95,8.551C1.139-1.36,1.717.272,4.029.272ZM6.817-11.492c2.3,0,1.785,3.145,1.428,5.015H2.873C3.3-8.245,4.624-11.492,6.817-11.492ZM4.3-.221c-2.567,0-1.8-4.216-1.53-5.712H8.143C7.718-4.029,6.732-.221,4.3-.221Z" fill="#4a90e2" stroke="#4a90e2" stroke-width="0.136"/>
            </g>
          </g>
          <g id="Raggruppa_136" data-name="Raggruppa 136">
            <g id="Raggruppa_135" data-name="Raggruppa 135">
              <g id="Raggruppa_134" data-name="Raggruppa 134">
                <g id="Raggruppa_133" data-name="Raggruppa 133">
                  <g id="Raggruppa_132" data-name="Raggruppa 132" transform="translate(365.844 275.002)">
                    <path id="Tracciato_58" data-name="Tracciato 58" d="M.19-.274V.036C2.416.036,2.416,0,2.844,0s.428.036,2.725.036V-.976c-1.368.06-1.916.012-4.117.06l2.166-2.3c1.154-1.226,1.511-1.88,1.511-2.773A2.161,2.161,0,0,0,2.689-8.2a2.561,2.561,0,0,0-2.023.833l-.2,1.618H.809L.964-6.3A1.258,1.258,0,0,1,2.38-7.283,1.556,1.556,0,0,1,4.058-5.629c0,.892-.5,1.773-1.844,3.2Z" fill="#4a90e2" stroke="#4a90e2" stroke-width="0.095"/>
                  </g>
                </g>
              </g>
            </g>
          </g>
        </g>
      </g>
      <g id="Raggruppa_153" data-name="Raggruppa 153">
        <g id="Raggruppa_152" data-name="Raggruppa 152">
          <g id="Raggruppa_140" data-name="Raggruppa 140">
            <g id="Raggruppa_139" data-name="Raggruppa 139" transform="translate(76.5 524.5)">
              <path id="Tracciato_59" data-name="Tracciato 59" d="M2.992.187A6.223,6.223,0,0,0,6.63-2.125,8.794,8.794,0,0,0,7.905-6.307c0-1.139-.391-1.887-1-1.887A4.1,4.1,0,0,0,4.4-6.953a7.131,7.131,0,0,0-1.649,2.04l.408-2.023a4.57,4.57,0,0,0,.085-.748c0-.323-.136-.51-.374-.51-.357,0-1,.357-2.261,1.258L.136-6.6l.119.34L.8-6.613C1.275-6.919,1.462-7,1.615-7c.17,0,.289.153.289.391a4.646,4.646,0,0,1-.068.646L.85-.136C.68.884.357,2.431.017,3.961l-.136.629.119.1A7.1,7.1,0,0,1,1.241,4.4L1.955-.051A3.618,3.618,0,0,0,2.992.187ZM2.431-2.805c.374-2.176,2.193-4.4,3.6-4.4.442,0,.646.374.646,1.156A9.432,9.432,0,0,1,5.1-1.36a1.813,1.813,0,0,1-1.581.748A2.506,2.506,0,0,1,2.125-1Z" fill="#d0021b" stroke="#d0021b" stroke-width="0.136"/>
            </g>
          </g>
          <g id="Raggruppa_145" data-name="Raggruppa 145">
            <g id="Raggruppa_144" data-name="Raggruppa 144">
              <g id="Raggruppa_143" data-name="Raggruppa 143">
                <g id="Raggruppa_142" data-name="Raggruppa 142">
                  <g id="Raggruppa_141" data-name="Raggruppa 141" transform="translate(85.492 528.002)">
                    <path id="Tracciato_60" data-name="Tracciato 60" d="M3.13-8.2C1.285-8.2.345-6.735.345-3.856A6.073,6.073,0,0,0,1.012-.678,2.206,2.206,0,0,0,2.832.238c1.8,0,2.7-1.547,2.7-4.593C5.534-6.962,4.76-8.2,3.13-8.2Zm-.214.417c1.154,0,1.618,1.166,1.618,4.022,0,2.535-.452,3.582-1.547,3.582-1.154,0-1.642-1.2-1.642-4.105C1.345-6.795,1.785-7.783,2.916-7.783Z" fill="#d0021b" stroke="#d0021b" stroke-width="0.095"/>
                  </g>
                </g>
              </g>
            </g>
          </g>
          <g id="Raggruppa_147" data-name="Raggruppa 147">
            <g id="Raggruppa_146" data-name="Raggruppa 146" transform="translate(92.453 524.5)">
              <path id="Tracciato_61" data-name="Tracciato 61" fill="#d0021b" stroke="#d0021b" stroke-width="0.136"/>
            </g>
          </g>
          <g id="Raggruppa_149" data-name="Raggruppa 149">
            <g id="Raggruppa_148" data-name="Raggruppa 148" transform="translate(101.781 524.5)">
              <path id="Tracciato_62" data-name="Tracciato 62" d="M10.268-5.9v-1H1.105v1Zm0,3.621v-1H1.105v1Z" fill="#d0021b" stroke="#d0021b" stroke-width="0.136"/>
            </g>
          </g>
          <g id="Raggruppa_151" data-name="Raggruppa 151">
            <g id="Raggruppa_150" data-name="Raggruppa 150" transform="translate(118.234 524.5)">
              <path id="Tracciato_63" data-name="Tracciato 63" d="M8.7-11.713c-2.635,0-3.978,2.091-3.978,6.2A8.676,8.676,0,0,0,5.678-.969,3.152,3.152,0,0,0,8.279.34c2.567,0,3.859-2.21,3.859-6.562C12.138-9.945,11.033-11.713,8.7-11.713Zm-.306.595c1.649,0,2.312,1.666,2.312,5.746,0,3.621-.646,5.117-2.21,5.117-1.649,0-2.346-1.717-2.346-5.865C6.154-9.707,6.783-11.118,8.4-11.118Z" fill="#d0021b" stroke="#d0021b" stroke-width="0.136"/>
            </g>
          </g>
        </g>
      </g>
      <g id="Raggruppa_162" data-name="Raggruppa 162">
        <g id="Raggruppa_161" data-name="Raggruppa 161">
          <g id="Raggruppa_155" data-name="Raggruppa 155">
            <g id="Raggruppa_154" data-name="Raggruppa 154" transform="translate(208.5 441)">
              <path id="Tracciato_64" data-name="Tracciato 64" d="M2.992.187A6.223,6.223,0,0,0,6.63-2.125,8.794,8.794,0,0,0,7.905-6.307c0-1.139-.391-1.887-1-1.887A4.1,4.1,0,0,0,4.4-6.953a7.131,7.131,0,0,0-1.649,2.04l.408-2.023a4.57,4.57,0,0,0,.085-.748c0-.323-.136-.51-.374-.51-.357,0-1,.357-2.261,1.258L.136-6.6l.119.34L.8-6.613C1.275-6.919,1.462-7,1.615-7c.17,0,.289.153.289.391a4.646,4.646,0,0,1-.068.646L.85-.136C.68.884.357,2.431.017,3.961l-.136.629.119.1A7.1,7.1,0,0,1,1.241,4.4L1.955-.051A3.618,3.618,0,0,0,2.992.187ZM2.431-2.805c.374-2.176,2.193-4.4,3.6-4.4.442,0,.646.374.646,1.156A9.432,9.432,0,0,1,5.1-1.36a1.813,1.813,0,0,1-1.581.748A2.506,2.506,0,0,1,2.125-1Z" fill="#d0021b" stroke="#d0021b" stroke-width="0.136"/>
            </g>
          </g>
          <g id="Raggruppa_160" data-name="Raggruppa 160">
            <g id="Raggruppa_159" data-name="Raggruppa 159">
              <g id="Raggruppa_158" data-name="Raggruppa 158">
                <g id="Raggruppa_157" data-name="Raggruppa 157">
                  <g id="Raggruppa_156" data-name="Raggruppa 156" transform="translate(217.492 444.502)">
                    <path id="Tracciato_65" data-name="Tracciato 65" d="M4.974.036V-.321L4.355-.357c-.655-.036-.773-.167-.773-.785V-8.33L.714-7.116.8-6.521l1.785-.785v6.164c0,.619-.131.75-.773.785l-.666.036V.036C2.975,0,2.975,0,3.106,0,3.475,0,4.784.036,4.974.036Z" fill="#d0021b" stroke="#d0021b" stroke-width="0.095"/>
                  </g>
                </g>
              </g>
            </g>
          </g>
        </g>
      </g>
      <g id="Raggruppa_171" data-name="Raggruppa 171">
        <g id="Raggruppa_170" data-name="Raggruppa 170">
          <g id="Raggruppa_164" data-name="Raggruppa 164">
            <g id="Raggruppa_163" data-name="Raggruppa 163" transform="translate(280.5 333.5)">
              <path id="Tracciato_66" data-name="Tracciato 66" d="M2.992.187A6.223,6.223,0,0,0,6.63-2.125,8.794,8.794,0,0,0,7.905-6.307c0-1.139-.391-1.887-1-1.887A4.1,4.1,0,0,0,4.4-6.953a7.131,7.131,0,0,0-1.649,2.04l.408-2.023a4.57,4.57,0,0,0,.085-.748c0-.323-.136-.51-.374-.51-.357,0-1,.357-2.261,1.258L.136-6.6l.119.34L.8-6.613C1.275-6.919,1.462-7,1.615-7c.17,0,.289.153.289.391a4.646,4.646,0,0,1-.068.646L.85-.136C.68.884.357,2.431.017,3.961l-.136.629.119.1A7.1,7.1,0,0,1,1.241,4.4L1.955-.051A3.618,3.618,0,0,0,2.992.187ZM2.431-2.805c.374-2.176,2.193-4.4,3.6-4.4.442,0,.646.374.646,1.156A9.432,9.432,0,0,1,5.1-1.36a1.813,1.813,0,0,1-1.581.748A2.506,2.506,0,0,1,2.125-1Z" fill="#d0021b" stroke="#d0021b" stroke-width="0.136"/>
            </g>
          </g>
          <g id="Raggruppa_169" data-name="Raggruppa 169">
            <g id="Raggruppa_168" data-name="Raggruppa 168">
              <g id="Raggruppa_167" data-name="Raggruppa 167">
                <g id="Raggruppa_166" data-name="Raggruppa 166">
                  <g id="Raggruppa_165" data-name="Raggruppa 165" transform="translate(289.492 337.002)">
                    <path id="Tracciato_67" data-name="Tracciato 67" d="M.19-.274V.036C2.416.036,2.416,0,2.844,0s.428.036,2.725.036V-.976c-1.368.06-1.916.012-4.117.06l2.166-2.3c1.154-1.226,1.511-1.88,1.511-2.773A2.161,2.161,0,0,0,2.689-8.2a2.561,2.561,0,0,0-2.023.833l-.2,1.618H.809L.964-6.3A1.258,1.258,0,0,1,2.38-7.283,1.556,1.556,0,0,1,4.058-5.629c0,.892-.5,1.773-1.844,3.2Z" fill="#d0021b" stroke="#d0021b" stroke-width="0.095"/>
                  </g>
                </g>
              </g>
            </g>
          </g>
        </g>
      </g>
      <g id="Raggruppa_180" data-name="Raggruppa 180">
        <g id="Raggruppa_179" data-name="Raggruppa 179">
          <g id="Raggruppa_173" data-name="Raggruppa 173">
            <g id="Raggruppa_172" data-name="Raggruppa 172" transform="translate(151.5 481.25)">
              <path id="Tracciato_68" data-name="Tracciato 68" d="M2.822-7.14a8.412,8.412,0,0,0,1.071-.068c-1.887,2.04-2.6,3.451-2.6,5.151A2.006,2.006,0,0,0,3.162.187c2.346,0,4.947-4.2,4.947-6.715,0-.969-.442-1.666-1.054-1.666a.785.785,0,0,0-.561.2l-.85.8.187.323a.823.823,0,0,1,.459-.153c.459,0,.731.391.731,1.071,0,2.516-1.649,5.287-3.145,5.287-.833,0-1.36-.714-1.36-1.819,0-1.785.663-3.332,2.329-5.406l-.17-.306a2.133,2.133,0,0,1-1.037.2c-.476,0-1.19-.034-1.683-.085l-.2-.017a1.275,1.275,0,0,0-.2-.017A1.209,1.209,0,0,0,1-7.99,8.933,8.933,0,0,0,.357-5.984H.731L1.02-6.7a.9.9,0,0,1,.867-.476C2.448-7.174,2.176-7.14,2.822-7.14Z" fill="#7ed321" stroke="#7ed321" stroke-width="0.136"/>
            </g>
          </g>
          <g id="Raggruppa_178" data-name="Raggruppa 178">
            <g id="Raggruppa_177" data-name="Raggruppa 177">
              <g id="Raggruppa_176" data-name="Raggruppa 176">
                <g id="Raggruppa_175" data-name="Raggruppa 175">
                  <g id="Raggruppa_174" data-name="Raggruppa 174" transform="translate(160.492 484.752)">
                    <path id="Tracciato_69" data-name="Tracciato 69" d="M4.974.036V-.321L4.355-.357c-.655-.036-.773-.167-.773-.785V-8.33L.714-7.116.8-6.521l1.785-.785v6.164c0,.619-.131.75-.773.785l-.666.036V.036C2.975,0,2.975,0,3.106,0,3.475,0,4.784.036,4.974.036Z" fill="#7ed321" stroke="#7ed321" stroke-width="0.095"/>
                  </g>
                </g>
              </g>
            </g>
          </g>
        </g>
      </g>
      <g id="Raggruppa_193" data-name="Raggruppa 193">
        <g id="Raggruppa_192" data-name="Raggruppa 192">
          <g id="Raggruppa_182" data-name="Raggruppa 182">
            <g id="Raggruppa_181" data-name="Raggruppa 181" transform="translate(53.828 499.75)">
              <path id="Tracciato_70" data-name="Tracciato 70" d="M2.822-7.14a8.412,8.412,0,0,0,1.071-.068c-1.887,2.04-2.6,3.451-2.6,5.151A2.006,2.006,0,0,0,3.162.187c2.346,0,4.947-4.2,4.947-6.715,0-.969-.442-1.666-1.054-1.666a.785.785,0,0,0-.561.2l-.85.8.187.323a.823.823,0,0,1,.459-.153c.459,0,.731.391.731,1.071,0,2.516-1.649,5.287-3.145,5.287-.833,0-1.36-.714-1.36-1.819,0-1.785.663-3.332,2.329-5.406l-.17-.306a2.133,2.133,0,0,1-1.037.2c-.476,0-1.19-.034-1.683-.085l-.2-.017a1.275,1.275,0,0,0-.2-.017A1.209,1.209,0,0,0,1-7.99,8.933,8.933,0,0,0,.357-5.984H.731L1.02-6.7a.9.9,0,0,1,.867-.476C2.448-7.174,2.176-7.14,2.822-7.14Z" fill="#7ed321" stroke="#7ed321" stroke-width="0.136"/>
            </g>
          </g>
          <g id="Raggruppa_187" data-name="Raggruppa 187">
            <g id="Raggruppa_186" data-name="Raggruppa 186">
              <g id="Raggruppa_185" data-name="Raggruppa 185">
                <g id="Raggruppa_184" data-name="Raggruppa 184">
                  <g id="Raggruppa_183" data-name="Raggruppa 183" transform="translate(62.82 503.252)">
                    <path id="Tracciato_71" data-name="Tracciato 71" d="M3.13-8.2C1.285-8.2.345-6.735.345-3.856A6.073,6.073,0,0,0,1.012-.678,2.206,2.206,0,0,0,2.832.238c1.8,0,2.7-1.547,2.7-4.593C5.534-6.962,4.76-8.2,3.13-8.2Zm-.214.417c1.154,0,1.618,1.166,1.618,4.022,0,2.535-.452,3.582-1.547,3.582-1.154,0-1.642-1.2-1.642-4.105C1.345-6.795,1.785-7.783,2.916-7.783Z" fill="#7ed321" stroke="#7ed321" stroke-width="0.095"/>
                  </g>
                </g>
              </g>
            </g>
          </g>
          <g id="Raggruppa_189" data-name="Raggruppa 189">
            <g id="Raggruppa_188" data-name="Raggruppa 188" transform="translate(74.875 499.75)">
              <path id="Tracciato_72" data-name="Tracciato 72" d="M10.268-5.9v-1H1.105v1Zm0,3.621v-1H1.105v1Z" fill="#7ed321" stroke="#7ed321" stroke-width="0.136"/>
            </g>
          </g>
          <g id="Raggruppa_191" data-name="Raggruppa 191">
            <g id="Raggruppa_190" data-name="Raggruppa 190" transform="translate(91.328 499.75)">
              <path id="Tracciato_73" data-name="Tracciato 73" d="M4.471-11.713c-2.635,0-3.978,2.091-3.978,6.2A8.676,8.676,0,0,0,1.445-.969,3.152,3.152,0,0,0,4.046.34c2.567,0,3.859-2.21,3.859-6.562C7.905-9.945,6.8-11.713,4.471-11.713Zm-.306.595c1.649,0,2.312,1.666,2.312,5.746,0,3.621-.646,5.117-2.21,5.117-1.649,0-2.346-1.717-2.346-5.865C1.921-9.707,2.55-11.118,4.165-11.118Z" fill="#7ed321" stroke="#7ed321" stroke-width="0.136"/>
            </g>
          </g>
        </g>
      </g>
      <g id="Raggruppa_202" data-name="Raggruppa 202">
        <g id="Raggruppa_201" data-name="Raggruppa 201">
          <g id="Raggruppa_195" data-name="Raggruppa 195">
            <g id="Raggruppa_194" data-name="Raggruppa 194" transform="translate(115.094 461.25)">
              <path id="Tracciato_74" data-name="Tracciato 74" d="M2.822-7.14a8.412,8.412,0,0,0,1.071-.068c-1.887,2.04-2.6,3.451-2.6,5.151A2.006,2.006,0,0,0,3.162.187c2.346,0,4.947-4.2,4.947-6.715,0-.969-.442-1.666-1.054-1.666a.785.785,0,0,0-.561.2l-.85.8.187.323a.823.823,0,0,1,.459-.153c.459,0,.731.391.731,1.071,0,2.516-1.649,5.287-3.145,5.287-.833,0-1.36-.714-1.36-1.819,0-1.785.663-3.332,2.329-5.406l-.17-.306a2.133,2.133,0,0,1-1.037.2c-.476,0-1.19-.034-1.683-.085l-.2-.017a1.275,1.275,0,0,0-.2-.017A1.209,1.209,0,0,0,1-7.99,8.933,8.933,0,0,0,.357-5.984H.731L1.02-6.7a.9.9,0,0,1,.867-.476C2.448-7.174,2.176-7.14,2.822-7.14Z" fill="#7ed321" stroke="#7ed321" stroke-width="0.136"/>
            </g>
          </g>
          <g id="Raggruppa_200" data-name="Raggruppa 200">
            <g id="Raggruppa_199" data-name="Raggruppa 199">
              <g id="Raggruppa_198" data-name="Raggruppa 198">
                <g id="Raggruppa_197" data-name="Raggruppa 197">
                  <g id="Raggruppa_196" data-name="Raggruppa 196" transform="translate(124.086 464.752)">
                    <path id="Tracciato_75" data-name="Tracciato 75" d="M.19-.274V.036C2.416.036,2.416,0,2.844,0s.428.036,2.725.036V-.976c-1.368.06-1.916.012-4.117.06l2.166-2.3c1.154-1.226,1.511-1.88,1.511-2.773A2.161,2.161,0,0,0,2.689-8.2a2.561,2.561,0,0,0-2.023.833l-.2,1.618H.809L.964-6.3A1.258,1.258,0,0,1,2.38-7.283,1.556,1.556,0,0,1,4.058-5.629c0,.892-.5,1.773-1.844,3.2Z" fill="#7ed321" stroke="#7ed321" stroke-width="0.095"/>
                  </g>
                </g>
              </g>
            </g>
          </g>
        </g>
      </g>
    </g>
  </g>
</svg>
